<svg t="1681819397105" class="icon" viewBox="0 0 1024 1024" version="1.1" xmlns="http://www.w3.org/2000/svg" p-id="3250" width="64" height="64"><path d="M669.489579 468.875916H773.587241v104.091522H669.489579z" fill="#CC172D" p-id="3251"></path><path d="M159.250686 111.725371l81.942103 73.947028c171.709414-82.938802 351.899972-94.580933 537.619443 0l95.930671-67.951489C625.089435-37.710805 387.581565-25.969413 159.250686 111.725371M159.250686 912.277699l81.942103-73.946005c171.709414 82.935732 351.899972 94.581956 537.619443 0l95.930671 67.949443c-249.653468 155.435808-487.161338 143.689299-715.492217 5.996562M111.780629 871.801927l73.950098-81.942104c-82.937778-171.707367-94.581956-351.898949 0-537.617396l-67.953535-95.933741c-155.430691 249.651421-143.688276 487.164408-5.996563 715.493241M912.218348 871.801927l-73.948052-81.942104c82.937778-171.707367 94.57991-351.898949 0-537.617396l67.951489-95.933741c155.430691 249.651421 143.688276 487.164408 5.996563 715.493241M469.032482 323.574913v75.946564c-39.833137-26.90062-82.482408-39.730807-129.000792-33.165287-66.084982 18.593436-46.490754 73.700412 7.972563 97.614006 127.151681 63.082608 173.964776 142.755023 113.544806 242.032922-85.278075 79.801351-175.00343 58.636351-253.985114 0v-90.642235c53.449223 45.81435 106.907655 65.067818 160.358923 57.766542 52.204885-25.645025 45.738626-75.615014-7.968469-111.554479-48.543502-22.956805-91.897829-46.426286-125.496998-85.653627-41.081569-81.916521-11.028149-150.149418 69.718735-176.29484 54.95041-23.067322 109.911052-13.203693 164.856346 23.950434M812.787976 323.574913v77.945077c-72.906328-33.634984-136.317416-37.246225-191.863389-15.989127v371.736723h-85.939129v-435.692209c96.417764-42.992077 187.74152-42.363769 277.802518 1.999536" fill="#221815" p-id="3252"></path></svg>